<?xml version="1.0" encoding="UTF-8" standalone="no"?>
<svg
   xmlns:osb="http://www.openswatchbook.org/uri/2009/osb"
   xmlns:dc="http://purl.org/dc/elements/1.1/"
   xmlns:cc="http://creativecommons.org/ns#"
   xmlns:rdf="http://www.w3.org/1999/02/22-rdf-syntax-ns#"
   xmlns:svg="http://www.w3.org/2000/svg"
   xmlns="http://www.w3.org/2000/svg"
   id="svg1962"
   version="1.1"
   viewBox="0 0 110.58414 32.528694"
   height="32.528694mm"
   width="110.58414mm">
  <defs
     id="defs1956">
    <linearGradient
       gradientTransform="matrix(0.00111085,0,0,1.1906198e-4,190.26907,844.83385)"
       osb:paint="solid"
       id="linearGradient4315">
      <stop
         id="stop4317"
         offset="0"
         style="stop-color:#5a1001;stop-opacity:1;" />
    </linearGradient>
  </defs>
  <metadata
     id="metadata1959">
    <rdf:RDF>
      <cc:Work
         rdf:about="">
        <dc:format>image/svg+xml</dc:format>
        <dc:type
           rdf:resource="http://purl.org/dc/dcmitype/StillImage" />
        <dc:title></dc:title>
      </cc:Work>
    </rdf:RDF>
  </metadata>
  <g
     transform="translate(-18.79126,-81.16419)"
     id="layer1">
    <path
       id="path2038-9-6"
       d="m 32.545366,81.164787 c -0.03787,-1.86e-4 -0.07885,0.0026 -0.120922,0.0071 -0.130268,0.01614 -0.228735,0.05379 -0.338479,0.137981 -0.07908,0.06064 -0.135043,0.133852 -0.140044,0.140044 -0.142923,0.176503 -0.186357,0.382666 -0.19172,0.534326 -0.0047,0.132926 0.01918,0.40468 0.222208,0.607721 0.135705,0.135705 0.315674,0.184864 0.340032,0.19222 0.08012,0.02408 0.159631,0.0403 0.243395,0.05427 0.169233,0.02823 0.370245,0.04847 0.605132,0.06305 0.07347,0.0045 0.168584,0.01429 0.243914,0.02275 0.03766,0.0042 0.07052,0.0079 0.09405,0.01085 0.01177,0.0027 0.0214,0.0029 0.02739,0.0037 0.006,0 0.04763,0.01058 -0.01034,-0.0027 a 0.29130842,0.29130842 0 0 0 0.03927,0.0053 c 0.138874,0.02765 0.307284,0.04945 0.486791,0.06874 0.130357,0.01402 0.459269,0.07258 0.619601,0.11213 0.215601,0.05323 0.473668,0.110067 0.635619,0.136949 0.363609,0.06035 1.16096,0.4377 1.427303,0.671803 -2.38e-4,-2.12e-4 0.06706,0.07811 0.127124,0.187563 0.06007,0.109485 0.12445,0.255429 0.175183,0.420661 0.02977,0.09694 0.06356,0.607325 -0.03359,1.275371 -0.06908,0.47498 -0.08629,0.538375 -0.31006,1.213882 -0.07142,0.215609 -0.135777,0.419233 -0.183968,0.578247 -0.02405,0.0794 -0.04391,0.147558 -0.05943,0.204655 -0.0075,0.02773 -0.01474,0.05395 -0.02119,0.08215 0.01156,-0.05064 -0.02066,0.06445 -0.02066,0.165365 0,0.19722 0.06881,0.380577 0.179832,0.508503 0.11103,0.127926 0.24942,0.200025 0.377238,0.247015 0.07295,0.02683 0.260175,0.09118 0.476459,0.0403 0.239506,-0.05633 0.386937,-0.213969 0.474906,-0.349832 0.147074,-0.227135 0.213093,-0.461873 0.341574,-0.853695 0.370589,-1.130115 0.493914,-1.787366 0.494544,-2.679938 5.29e-4,-0.599017 -0.07179,-0.917019 -0.343646,-1.502754 -0.244454,-0.52668 -0.634231,-0.905563 -1.254705,-1.274842 a 0.29130842,0.29130842 0 0 0 -0.03049,-0.01614 c -0.439582,-0.254978 -1.114071,-0.494109 -1.613856,-0.58031 -0.129241,-0.02223 -0.436845,-0.08612 -0.632002,-0.132292 a 0.29130842,0.29130842 0 0 0 -5.29e-4,0 c -0.238279,-0.05638 -0.517353,-0.108532 -0.725538,-0.1261 -0.105997,-0.009 -0.33678,-0.0404 -0.425812,-0.05736 -0.178864,-0.03408 -0.387768,-0.0553 -0.569476,-0.0553 -0.05775,0 -0.284507,-0.01878 -0.349332,-0.02945 -0.04571,-0.0077 -0.08859,-0.01773 -0.151411,-0.02593 -0.03147,-0.004 -0.06651,-0.0066 -0.104388,-0.0066 z m -0.05736,0.51935 c 0.06216,-0.0077 0.119711,0.005 0.229444,0.02328 0.116335,0.01931 0.318506,0.03567 0.432531,0.03567 0.132074,0 0.336394,0.02037 0.473355,0.04651 0.123127,0.02355 0.343686,0.05316 0.479041,0.06459 0.151263,0.0127 0.435224,0.06287 0.65009,0.113691 0.208055,0.04921 0.510442,0.112501 0.664043,0.139012 0.404815,0.06982 1.135891,0.33327 1.467609,0.530702 0.577662,0.343852 0.847778,0.611558 1.050581,1.048517 0.26321,0.567108 0.295476,0.709956 0.295074,1.285214 -5.29e-4,0.849312 -0.105227,1.410784 -0.468704,2.519203 -0.128728,0.392589 -0.20094,0.606425 -0.283705,0.734325 -0.04138,0.06395 -0.09467,0.112765 -0.160197,0.128164 -0.06553,0.01535 -0.123669,-0.0027 -0.179835,-0.02275 -0.120496,-0.04432 -0.21859,-0.140203 -0.21859,-0.270801 0,-0.02688 0.0034,-0.03318 0.0072,-0.05011 0.0039,-0.01693 0.0094,-0.03701 0.01603,-0.06149 0.01328,-0.04897 0.03212,-0.113586 0.0553,-0.190182 0.04635,-0.153221 0.110154,-0.354463 0.18035,-0.566368 0.225142,-0.679635 0.260274,-0.817245 0.33073,-1.301723 0.102626,-0.70567 0.102732,-1.220999 0.01654,-1.501722 -0.121084,-0.394441 -0.295656,-0.70321 -0.456285,-0.844392 -0.39043,-0.343191 -1.160886,-0.706649 -1.682586,-0.793247 -0.128939,-0.02143 -0.392123,-0.07787 -0.595828,-0.128164 -0.195797,-0.04834 -0.513483,-0.106601 -0.68988,-0.125572 -0.185902,-0.01984 -0.387686,-0.04591 -0.471289,-0.06408 -0.05211,-0.01138 -0.259869,-0.03532 -0.432015,-0.04599 -0.223033,-0.01376 -0.410958,-0.03318 -0.552939,-0.05683 -0.07099,-0.01191 -0.130112,-0.02461 -0.1788,-0.03929 -0.04869,-0.01455 -0.08563,-0.02513 -0.123508,-0.06302 -0.06297,-0.063 -0.07477,-0.145071 -0.07183,-0.224816 0.0029,-0.07972 0.0235,-0.16129 0.077,-0.227357 0.01492,-0.01852 0.0301,-0.03768 0.05374,-0.05583 0.02365,-0.01799 0.05625,-0.0313 0.08733,-0.03514 z m -9.440767,1.405096 c -0.07587,-0.0026 -0.148148,0 -0.223242,0.0058 -0.447397,0.03183 -1.125051,0.125943 -1.555978,0.287815 -0.421452,0.158327 -0.834273,0.384519 -1.151868,0.649076 -0.575998,0.479795 -0.889868,0.953532 -1.054717,1.614884 -0.04461,0.178965 -0.122026,0.447464 -0.14211,0.506439 -0.06421,0.188516 -0.09979,0.384943 -0.116271,0.572056 -0.01519,0.172323 -0.02827,0.372877 0.04548,0.596344 0.04938,0.149622 0.140949,0.295672 0.269751,0.413412 0.09283,0.315277 0.259188,0.585258 0.514181,0.872807 0.237479,0.267812 0.779674,1.009095 1.065051,1.470713 0.231555,0.374571 0.584708,0.847064 0.918805,1.235075 0.253354,0.294243 0.77593,1.047671 0.894519,1.269683 0.125521,0.235003 0.194408,0.509429 0.194821,0.807191 2.46e-4,0.380762 -0.09318,1.197292 -0.243396,1.976622 -0.05176,0.268526 -0.107553,0.574728 -0.130225,0.724509 -0.07538,0.497999 -0.131792,0.829813 -0.186553,1.101751 -0.03583,0.177906 -0.07929,0.419127 -0.102319,0.569463 -0.01381,0.09022 -0.07466,0.406162 -0.124021,0.630449 -0.05202,0.236379 -0.135829,0.616374 -0.186036,0.843889 -0.443098,2.007499 -0.538091,2.628399 -0.539502,3.553779 -7.93e-4,0.4745 0.02262,0.69389 0.101286,0.9462 0.209563,0.67225 0.451863,1.04484 1.198893,1.82623 1.248796,1.30628 2.102911,1.90421 3.230292,2.19782 0.443339,0.11544 0.845548,0.21659 1.163754,0.29247 0.316714,0.0756 0.529572,0.12536 0.691431,0.14729 0.366895,0.0497 0.88552,0.05 1.254704,0.003 0.537615,-0.0698 1.213189,-0.35681 1.763199,-0.6754 0.31124,-0.18029 0.544322,-0.45955 0.798918,-0.78137 0.259998,-0.32864 0.5199,-0.71226 0.721405,-1.08622 0.06988,-0.12967 0.206345,-0.36398 0.275433,-0.47336 0.257011,-0.40685 0.563658,-0.92996 0.711068,-1.22267 0.09061,-0.17992 0.243348,-0.51491 0.382405,-0.82785 0.06958,-0.15658 0.134001,-0.30472 0.182936,-0.42014 0.02437,-0.0574 0.04479,-0.10644 0.06149,-0.14882 0.0082,-0.0209 0.01643,-0.0414 0.02429,-0.0641 0.0032,-0.009 0.0093,-0.0271 0.01497,-0.0475 -0.01513,0.0539 -0.0016,0.0177 0.01035,-0.0315 0.0016,-0.007 7.94e-4,-0.013 0.0021,-0.0196 0.0011,-0.004 0.0011,-0.004 0.0026,-0.009 0.0077,-0.0267 0.02119,-0.071 0.03772,-0.12454 0.03307,-0.10713 0.07942,-0.25469 0.130741,-0.41238 0.524315,-1.61108 0.641501,-2.088174 0.7028,-2.860281 l 0.01913,-0.239263 0.113686,-0.108532 0.0021,-0.0026 c 0.07189,-0.06842 0.157475,-0.146288 0.226341,-0.20775 0.03444,-0.03072 0.06476,-0.05723 0.08682,-0.07649 0.02207,-0.01931 0.06148,-0.04945 0.02687,-0.02328 0.04982,-0.03773 0.09732,-0.07869 0.142111,-0.124037 0.01953,-0.01984 0.04948,-0.05154 0.07906,-0.09147 -0.04712,0.06358 0.01058,0.009 0.05839,-0.07337 0.04781,-0.08229 0.06537,-0.173672 0.06976,-0.280617 0.0032,-0.07885 -0.0051,-0.151527 -0.02532,-0.213439 -0.02019,-0.06191 -0.0507,-0.110808 -0.04031,-0.08991 -0.02016,-0.04053 -0.04376,-0.07546 -0.05426,-0.09043 -0.02679,-0.03815 -0.05364,-0.0694 -0.07338,-0.09147 -0.0437,-0.04887 -0.09131,-0.09509 -0.142629,-0.141076 -0.01371,-0.01217 -0.07075,-0.07321 -0.164846,-0.134355 -0.09348,-0.06075 -0.173805,-0.08152 -0.269235,-0.09716 -0.01622,-0.0026 -0.03441,-0.0026 -0.05116,-0.0042 -0.0019,-0.113718 -0.0029,-0.234342 -0.0062,-0.332793 -0.0039,-0.118057 -0.004,-0.261462 -0.0021,-0.381873 0.0019,-0.120412 0.0085,-0.236829 0.0083,-0.234607 0.01093,-0.09755 0.03316,-0.221535 0.0041,-0.38346 -0.03665,-0.204391 -0.145658,-0.335121 -0.201538,-0.401505 -0.10771,-0.128032 -0.264914,-0.250005 -0.474906,-0.296625 -0.215977,-0.04797 -0.416862,0 -0.578258,0.08525 -0.272693,0.145944 -0.400052,0.412168 -0.452686,0.667147 -0.0462,0.223784 -0.06085,0.477388 -0.07803,0.861959 -0.02901,0.649262 -0.02384,0.867834 0.02842,1.248516 0.03447,0.251011 0.03925,0.195527 -0.03669,0.438203 -0.0029,0.0026 -0.06422,0.06911 -0.184486,0.178303 -0.570288,0.517737 -1.832436,1.797045 -2.69906,2.730045 -0.936072,1.00778 -1.178245,1.25392 -2.092378,2.12495 -0.640135,0.60995 -0.957019,0.90795 -1.163754,1.13946 -0.220099,0.24648 -0.316515,0.48358 -0.369488,0.66146 -0.04389,0.14737 -0.0975,0.33903 -0.05633,0.56533 0.0461,0.25342 0.197419,0.42513 0.32298,0.53539 0.193439,0.16983 0.473858,0.29852 0.802534,0.22632 0.264009,-0.058 0.451342,-0.19651 0.655775,-0.34623 0.05581,-0.0409 0.331399,-0.22305 0.528132,-0.34312 0.587476,-0.35853 1.086795,-0.80182 1.60972,-1.41541 0.486272,-0.5706 0.606187,-0.67752 1.213363,-1.08212 0.101008,-0.0673 0.193641,-0.13557 0.285771,-0.20413 -0.204626,0.44027 -0.395004,0.80225 -0.758092,1.38907 -0.117218,0.18944 -0.247319,0.41235 -0.321945,0.56017 -0.09218,0.18262 -0.549476,0.85522 -0.687813,1.01079 -0.02469,0.0278 -0.08907,0.0886 -0.146246,0.13798 -0.05718,0.0494 -0.137014,0.1052 -0.104902,0.0858 -0.135506,0.0819 -0.632666,0.31046 -0.838708,0.37931 0.01347,-0.005 -0.05271,0.0122 -0.128675,0.0228 -0.07597,0.0106 -0.173405,0.0212 -0.276987,0.0294 -0.207161,0.0164 -0.44518,0.0222 -0.581358,0.01 -0.07563,-0.007 -0.372602,-0.0612 -0.741558,-0.1447 -0.36888,-0.0836 -0.827998,-0.1969 -1.300105,-0.32609 -0.07711,-0.0212 -0.333105,-0.1415 -0.604613,-0.31213 -0.27151,-0.1706 -0.57763,-0.39296 -0.83871,-0.62476 -0.166828,-0.14811 -0.49988,-0.48324 -0.785482,-0.78859 -0.142923,-0.1528 -0.277569,-0.30073 -0.379304,-0.41807 -0.04846,-0.0559 -0.09267,-0.11144 -0.124539,-0.15192 -0.01537,-0.0196 -0.02751,-0.0352 -0.03617,-0.0465 0.0028,0.003 -0.122299,-0.25506 -0.163814,-0.37259 -0.102257,-0.28945 -0.130054,-0.6005 -0.06098,-1.10691 0.02984,-0.21876 0.06845,-0.53845 0.08837,-0.73536 0.0077,-0.0763 0.02138,-0.17647 0.03462,-0.26096 0.01326,-0.0845 0.03117,-0.17248 0.02791,-0.15967 0.03521,-0.13803 0.107246,-0.46879 0.178284,-0.80513 0.09488,-0.449181 0.190569,-0.892702 0.264067,-1.228326 0.03674,-0.167799 0.06822,-0.308875 0.09095,-0.408781 0.0114,-0.05016 0.02032,-0.09017 0.02635,-0.115226 -0.0018,0.0074 0.0034,-0.01032 0.0067,-0.02064 7.94e-4,-0.0026 -0.0024,0.0127 0.0062,-0.0217 0.0011,-0.0042 0.0057,-0.02683 0.0057,-0.02686 0,0 -1.11e-4,-0.0063 0,-0.0082 0.0011,-0.005 0.0095,-0.0331 0.0088,-0.02998 0.0059,-0.02752 0.01177,-0.05718 0.0181,-0.09043 0.0127,-0.06683 0.02723,-0.148643 0.04134,-0.234077 0.02524,-0.152797 0.08431,-0.488182 0.128675,-0.729668 0.151757,-0.826108 0.202922,-1.118526 0.227375,-1.330166 0.0021,-0.01931 0.04838,-0.293291 0.08578,-0.468709 0.09233,-0.432938 0.191447,-1.138793 0.252182,-1.76112 0.07096,-0.727101 -0.05331,-1.441 -0.381889,-2.045864 -0.221644,-0.408037 -0.736584,-1.127863 -1.062979,-1.505847 -0.281985,-0.326601 -0.613114,-0.77171 -0.739489,-0.978773 -0.329108,-0.539221 -0.916128,-1.365647 -1.258837,-1.733735 -0.183656,-0.197247 -0.189617,-0.207963 -0.244946,-0.387562 -0.04353,-0.141287 -0.115904,-0.28059 -0.211357,-0.411347 0.01349,-0.06575 0.04635,-0.212673 0.04134,-0.198438 0.05401,-0.153511 0.107468,-0.361474 0.147793,-0.546232 0.07756,-0.355336 0.1734,-0.510461 0.423746,-0.713132 0.250362,-0.202671 0.224669,-0.186399 0.569992,-0.344672 0.291616,-0.133668 0.535149,-0.19484 1.056267,-0.248047 0.100158,-0.01032 0.201015,-0.02275 0.288354,-0.03514 0.07797,-0.01111 0.149531,-0.01878 0.245464,-0.04601 0.01722,-0.0048 0.09078,-0.02461 0.167431,-0.06459 0.113607,-0.05921 0.206738,-0.133826 0.284221,-0.279585 0.105225,-0.197908 0.0834,-0.410342 0.0832,-0.424259 -0.0011,-0.07527 -0.0079,-0.149755 -0.02223,-0.223229 -0.0067,-0.0345 -0.01744,-0.08006 -0.03514,-0.129726 0.0038,0.01058 -0.05285,-0.146843 -0.156062,-0.25011 -0.07018,-0.07019 -0.146552,-0.122079 -0.222207,-0.14986 -0.07566,-0.02775 -0.141404,-0.03204 -0.117306,-0.02738 -0.05747,-0.01111 -0.108191,-0.01376 -0.14211,-0.01508 z m -0.01913,0.515726 c 0.02291,0 0.04343,0.0027 0.06356,0.0061 0.02013,0.004 0.04134,0.0042 0.07234,0.03514 0.02342,0.02355 0.02829,0.0412 0.03462,0.05892 0.0064,0.01773 0.01111,0.03553 0.01497,0.0553 0.0078,0.03948 0.01177,0.08475 0.01241,0.13126 0.0011,0.07088 0.0072,0.117158 -0.02326,0.174149 -0.01521,0.02847 -0.0425,0.05204 -0.06666,0.06459 -0.02416,0.01243 -0.04548,0.01852 -0.06924,0.0254 -0.04039,0.01138 -0.09844,0.0209 -0.177768,0.03204 -0.07933,0.01138 -0.174464,0.02302 -0.267684,0.03257 -0.548746,0.05604 -0.875512,0.134964 -1.219047,0.29247 a 0.09061445,0.09061445 0 0 0 -5.29e-4,0 c -0.351247,0.161021 -0.422428,0.204333 -0.680063,0.412904 -0.324504,0.262678 -0.507596,0.566658 -0.603063,1.004067 -0.03626,0.166106 -0.09233,0.377534 -0.130225,0.485246 -0.03021,0.08586 -0.06768,0.260879 -0.077,0.363802 -0.0091,0.09999 -0.0088,0.146685 -0.0052,0.160205 0.0036,0.01349 0.01082,0.02275 0.0584,0.06768 0.08342,0.079 0.142436,0.195051 0.187585,0.341577 0.07021,0.227939 0.154164,0.36576 0.360185,0.587058 0.266668,0.286385 0.891384,1.15144 1.196308,1.651053 0.158686,0.260006 0.488699,0.699585 0.789101,1.047485 0.281231,0.325676 0.82617,1.095032 0.999937,1.414913 0.272966,0.502523 0.384556,1.111991 0.322461,1.748208 -0.05903,0.604811 -0.159731,1.311407 -0.243395,1.703758 -0.0406,0.190368 -0.084,0.430821 -0.09405,0.517816 -0.02098,0.18161 -0.07068,0.471223 -0.222208,1.296035 -0.04496,0.244739 -0.103685,0.577823 -0.130225,0.738452 -0.01349,0.08165 -0.02762,0.160126 -0.03927,0.221694 -0.0058,0.0308 -0.01101,0.05712 -0.01551,0.07803 -0.0045,0.0209 -0.0055,0.02995 -0.01344,0.05117 0.0048,-0.01296 -0.0038,0.01508 -0.01085,0.04445 -0.0071,0.0294 -0.01627,0.0703 -0.02791,0.121418 -0.02328,0.102235 -0.05502,0.244316 -0.09198,0.412908 -0.07394,0.337265 -0.169447,0.781527 -0.264583,1.231953 -0.07043,0.33346 -0.147313,0.68128 -0.173633,0.78447 -0.02117,0.0829 -0.05774,0.31649 -0.07596,0.49659 -0.01879,0.18582 -0.05706,0.50671 -0.08578,0.71729 -0.07593,0.55666 -0.04841,0.97033 0.08526,1.34874 0.05732,0.16227 0.157974,0.38473 0.210841,0.47284 0.02162,0.036 0.102317,0.13951 0.210322,0.26408 0.108006,0.12456 0.245851,0.27651 0.392224,0.43304 0.292746,0.31303 0.622237,0.64643 0.819589,0.82166 0.571527,0.50742 1.274191,0.94618 1.650029,1.04902 0.958604,0.26231 1.833954,0.45977 2.131653,0.48681 0.376827,0.0342 0.983837,-0.0148 1.197343,-0.0863 0.269851,-0.0901 0.730887,-0.29977 0.942062,-0.42738 0.08892,-0.0537 0.267139,-0.20624 0.370001,-0.32192 0.211249,-0.23762 0.620501,-0.83963 0.762746,-1.12138 0.05702,-0.11298 0.189095,-0.34317 0.299723,-0.52195 0.520732,-0.84161 0.688012,-1.16205 1.070218,-2.06033 0.1606,-0.37746 0.271876,-0.70726 0.670243,-1.98231 0.05768,-0.18463 0.104812,-0.3695 0.149863,-0.54571 -0.0077,0.0156 -0.01281,0.0238 -0.02066,0.0398 -0.399407,0.80822 -0.625465,1.20187 -0.875398,1.51929 -0.371303,0.47159 -0.723651,0.79523 -1.246436,1.14361 -0.62084,0.41368 -0.823934,0.59417 -1.320332,1.17666 -0.498097,0.58443 -0.947259,0.98141 -1.485699,1.31 -0.20848,0.12724 -0.467861,0.29586 -0.564826,0.3669 -0.196834,0.14415 -0.33039,0.22963 -0.460954,0.25839 -0.130564,0.0288 -0.250156,-0.0212 -0.350883,-0.10956 -0.07961,-0.0699 -0.138713,-0.14512 -0.156062,-0.2403 -0.01736,-0.0952 0.0029,-0.19311 0.04237,-0.32557 0.04769,-0.16015 0.08471,-0.26786 0.260967,-0.46508 0.176257,-0.19725 0.494416,-0.4993 1.134814,-1.10948 0.916434,-0.87325 1.176716,-1.13744 2.1146,-2.14717 0.856332,-0.92191 2.131655,-2.213085 2.667537,-2.699574 0.131445,-0.119327 0.205793,-0.191611 0.249081,-0.245983 0.04329,-0.05432 0.05862,-0.08935 0.08062,-0.159676 0.08359,-0.267124 0.09377,-0.386556 0.05581,-0.662993 -0.04999,-0.364014 -0.05303,-0.512048 -0.02429,-1.155488 0.01691,-0.378831 0.03445,-0.61722 0.06821,-0.780336 0.03376,-0.163063 0.09576,-0.266224 0.19017,-0.316759 0.07039,-0.03765 0.149058,-0.05265 0.223242,-0.03617 0.07418,0.0164 0.138726,0.06205 0.19172,0.125042 0.0413,0.04908 0.07697,0.0962 0.08836,0.160205 0.0114,0.06398 0.0029,0.126392 -0.0093,0.235136 -0.0123,0.109722 -0.01744,0.432011 -0.0088,0.691409 0.0088,0.264266 0.01603,0.674026 0.01603,0.914691 v 0.23151 l 0.06615,-0.05943 c 0.166227,-0.149463 0.229704,-0.225981 0.329179,-0.258921 0.04974,-0.01641 0.112355,-0.0032 0.149863,0.02117 0.0375,0.02434 0.06437,0.05276 0.101801,0.08631 0.03956,0.03545 0.07448,0.07054 0.101803,0.101283 0.01365,0.01535 0.02561,0.029 0.03566,0.04342 0.005,0.0071 0.0096,0.01455 0.01447,0.02434 0.0048,0.0098 0.01318,0.02037 0.01188,0.05218 -0.0021,0.04874 -0.01672,0.05527 -0.02635,0.06821 -0.0096,0.01296 -0.02013,0.02408 -0.03204,0.03619 -0.02379,0.02408 -0.05392,0.04948 -0.08682,0.0744 -0.04658,0.03527 -0.229222,0.19849 -0.383956,0.345731 l -0.258381,0.246486 -0.03514,0.435636 c -0.0588,0.740675 -0.156633,1.136791 -0.679029,2.741961 -0.05203,0.15986 -0.09915,0.30895 -0.133324,0.4196 -0.01709,0.0553 -0.03096,0.10097 -0.04031,0.13333 -0.0047,0.0161 -0.0082,0.0289 -0.01035,0.0372 -0.0011,0.004 -0.0013,0.007 -0.0016,0.008 -2.06e-4,0 5.3e-4,0.005 5.3e-4,-0.0124 0,0.0236 -0.0029,0.0254 -0.0047,0.0315 -0.0016,0.006 -0.003,0.0114 -0.0052,0.0175 -0.0042,0.0122 -0.01019,0.0259 -0.01704,0.0434 -0.01376,0.0349 -0.0328,0.082 -0.05633,0.13745 -0.04706,0.11091 -0.111056,0.25664 -0.179834,0.41134 -0.137555,0.30941 -0.293262,0.65016 -0.371555,0.80566 -0.127158,0.25247 -0.437729,0.78531 -0.68626,1.17872 -0.0811,0.12843 -0.214844,0.35782 -0.293524,0.50385 -0.183001,0.33964 -0.430403,0.7059 -0.672311,1.01184 -0.241906,0.30594 -0.470559,0.54922 -0.652672,0.65474 -0.496218,0.28742 -1.185404,0.55973 -1.570963,0.60976 -0.286327,0.0372 -0.806027,0.0359 -1.097092,-0.003 a 0.09061445,0.09061445 0 0 1 -0.0217,0 c -0.105284,-0.0143 -0.327376,-0.0629 -0.640677,-0.1375 -0.313301,-0.0746 -0.712811,-0.17465 -1.153419,-0.28937 -1.03025,-0.26831 -1.763239,-0.77465 -2.987413,-2.05518 -0.73501,-0.7688 -0.882057,-0.99134 -1.079005,-1.62316 -0.06711,-0.21527 -0.07822,-0.32761 -0.07751,-0.79169 0.0013,-0.89276 0.08534,-1.44174 0.5271,-3.443185 0.05024,-0.227648 0.133464,-0.607351 0.185518,-0.843889 0.05167,-0.234765 0.111485,-0.538348 0.130741,-0.664051 0.02059,-0.134303 0.06432,-0.377005 0.09819,-0.545174 0.05725,-0.284348 0.114692,-0.624972 0.190685,-1.127072 0.01918,-0.126762 0.07577,-0.440108 0.126606,-0.703818 0.154927,-0.803804 0.253563,-1.618642 0.253217,-2.075339 -5.29e-4,-0.377164 -0.08836,-0.736044 -0.255799,-1.049549 -0.168458,-0.315384 -0.662075,-1.018752 -0.959115,-1.363742 -0.315402,-0.366289 -0.662379,-0.831004 -0.871265,-1.168929 -0.306459,-0.495697 -0.832585,-1.220947 -1.117761,-1.542521 -0.230481,-0.2599 -0.334881,-0.433044 -0.406694,-0.680059 -0.03452,-0.118771 -0.06725,-0.168328 -0.109553,-0.198437 -0.02713,-0.01932 -0.04883,-0.04569 -0.0708,-0.07133 -0.01664,0.01587 -0.03089,0.02947 -0.04496,0.04289 0.0034,-0.03421 0.0088,-0.08371 0.0088,-0.08371 h 0.0021 c -0.02416,-0.03593 -0.04496,-0.07469 -0.05839,-0.115253 -0.03408,-0.103293 -0.03499,-0.238733 -0.0217,-0.389625 0.01328,-0.150918 0.04363,-0.312685 0.09043,-0.450109 0.03498,-0.102738 0.106764,-0.355203 0.155027,-0.548799 0.146513,-0.587798 0.353076,-0.900139 0.884185,-1.342549 0.255108,-0.212487 0.63237,-0.42373 1.002522,-0.562768 0.193823,-0.07281 0.577111,-0.147188 0.932762,-0.199973 0.177823,-0.02646 0.347059,-0.04649 0.478522,-0.05583 0.06573,-0.0048 0.121627,-0.0069 0.167431,-0.0053 z m -3.630787,3.670062 c 0.01,0.01482 0.02246,0.02675 0.03411,0.0403 0.01037,-0.0098 0.02791,-0.02685 0.02791,-0.02685 z m 24.984006,6.237341 c -0.232344,0 -0.397039,0.07607 -0.575159,0.144171 -0.196879,0.07527 -0.421654,0.165709 -0.549836,0.223758 -0.121259,0.05493 -0.894707,0.296228 -1.196311,0.353986 -0.191307,0.03665 -0.515625,0.101124 -0.729155,0.144701 -0.195209,0.03985 -0.544025,0.103082 -0.742071,0.134355 -0.618879,0.09774 -1.085147,0.326999 -1.548744,0.760678 -0.237937,0.222594 -0.464442,0.541602 -0.700215,0.89916 -0.185412,0.281199 -0.351403,0.569965 -0.48886,0.840263 -0.159215,0.01535 -0.3689,0.06969 -0.540536,0.241327 0.01225,-0.01217 -0.08662,0.07874 -0.145727,0.193278 -0.07173,0.138986 -0.0812,0.261461 -0.07596,0.367427 0.0076,0.153749 0.03986,0.25818 0.08062,0.434604 l 0.03772,0.162772 -0.108519,0.232013 c -0.211799,0.452967 -0.569253,1.24759 -0.765328,1.701195 -0.0502,0.11612 -0.102942,0.2128 -0.130741,0.37052 -0.02114,0.11993 -0.02088,0.24164 0.04237,0.39119 0.05019,0.11869 0.136745,0.20999 0.137975,0.21137 0.137269,0.15163 0.307711,0.23529 0.453718,0.2775 0.07444,0.0214 0.1743,0.0406 0.285772,0.0352 0.105235,-0.005 0.314796,-0.0448 0.472323,-0.21291 0.06889,-0.0735 0.129744,-0.1904 0.09767,-0.13436 0.01312,-0.023 0.0245,-0.0445 0.03566,-0.0662 0.0024,-0.005 0.0058,-0.0122 0.0083,-0.0169 0.01437,0.13938 0.0288,0.2875 0.04031,0.38862 0.02167,0.19034 0.0074,0.52745 -0.07855,1.07021 -0.05678,0.35883 -0.240911,0.88966 -0.442865,1.25574 -0.118552,0.21487 -0.252007,0.46305 -0.314192,0.586 0.0177,-0.035 -0.0065,0.01 -0.02791,0.0429 -0.02146,0.0334 -0.05126,0.0791 -0.08527,0.12973 -0.06801,0.10123 -0.153991,0.22457 -0.228926,0.32348 -0.177361,0.23407 -0.36481,0.49445 -0.467672,0.66405 -0.0649,0.10699 -0.16964,0.27429 -0.219109,0.35036 -0.08596,0.13218 -0.154506,0.27411 -0.210839,0.41238 -0.05196,0.12753 -0.109236,0.27183 -0.125058,0.4563 -0.01191,0.13901 -0.02238,0.30038 0.02687,0.48008 0.05328,0.19439 0.162542,0.33613 0.256318,0.43768 0.288279,0.31226 0.685916,0.47154 1.17357,0.55605 0.32498,0.0563 0.565719,0.07 0.982887,0.0569 0.285009,-0.009 0.578499,-0.0243 0.769462,-0.0522 0.08084,-0.0119 0.34219,-0.0416 0.52348,-0.0579 0.22275,-0.0201 0.521396,-0.0613 0.731224,-0.10232 0.173442,-0.0339 0.47484,-0.0922 0.666107,-0.12866 0.352629,-0.0672 0.585489,-0.11404 0.752927,-0.15452 0.08231,-0.0198 0.153573,-0.0385 0.22686,-0.0656 -0.0172,0.006 0.04766,-0.005 0.132807,-0.0506 0.08515,-0.0463 0.164547,-0.12602 0.229444,-0.22842 0.162645,-0.25669 0.124164,-0.53938 0.08837,-0.67902 -0.01572,-0.0613 -0.03785,-0.16889 -0.110586,-0.28475 -0.07274,-0.11586 -0.201326,-0.22592 -0.365352,-0.28887 -0.131776,-0.0506 -0.302421,-0.0436 -0.25735,-0.0439 -0.04455,0 -0.0847,0.004 -0.120406,0.008 -0.07337,0.008 -0.149913,0.0204 -0.22841,0.0377 -0.304212,0.067 -0.520697,0.10943 -0.657323,0.13486 -0.06832,0.0127 -0.115998,0.0212 -0.147796,0.0269 -0.0159,0.003 -0.02495,0.004 -0.04289,0.008 -0.0024,0 -0.0072,0.003 -0.01085,0.003 -0.0068,0 -0.01212,0.003 -0.0186,0.003 -0.0021,0 -0.0039,0 -0.0088,0 -0.05877,0.006 -0.123251,0.0116 -0.171048,0.0196 -0.09207,0.0153 -0.199916,0.0358 -0.308509,0.0584 -0.161031,0.0335 -0.484667,0.0783 -0.602546,0.0863 -0.191381,0.013 -0.393526,0.0315 -0.546738,0.0605 0.044,-0.008 0.01378,-0.003 0.0052,0 -0.0086,0 -0.02178,0.003 -0.03824,0.004 -0.0329,0.003 -0.07862,0.007 -0.131257,0.0114 -0.10528,0.009 -0.238458,0.0177 -0.349851,0.0217 -0.205388,0.007 -0.417681,-0.009 -0.591695,-0.031 0.02914,-0.0476 0.05327,-0.0866 0.07906,-0.12867 0.05122,-0.0836 0.284311,-0.41995 0.45837,-0.65061 a 0.29130842,0.29130842 0 0 0 0.0011,-0.003 c 0.926439,-1.22693 1.493668,-2.74299 1.490866,-4.11342 -0.0016,-0.77809 -0.17998,-2.055922 -0.40101,-2.975534 l -0.08785,-0.364834 0.122473,-0.283184 a 0.29130842,0.29130842 0 0 0 0.0011,-0.0026 c 0.16156,-0.37465 0.610225,-1.161176 0.907437,-1.577684 0.206877,-0.289904 0.429268,-0.426032 0.819073,-0.483155 0.199623,-0.02926 0.476634,-0.07721 0.65474,-0.113692 0.145371,-0.02979 0.490691,-0.09557 0.746723,-0.142107 0.54741,-0.09954 1.289672,-0.318426 1.828314,-0.536919 0.142449,-0.05779 0.339743,-0.134806 0.398425,-0.156078 0.186635,-0.0676 0.413308,-0.17235 0.571024,-0.398939 0.194987,-0.280141 0.175829,-0.600895 0.03721,-0.859896 -0.03156,-0.05895 -0.09937,-0.176556 -0.222726,-0.271806 -0.14686,-0.1134 -0.29858,-0.152585 -0.455787,-0.152453 a 0.29130842,0.29130842 0 0 0 -5.29e-4,0 z m 0.0011,0.516255 c 0.05023,-2.7e-5 0.101687,0.01535 0.140041,0.04495 0.03823,0.02955 0.06212,0.06644 0.0832,0.105939 v 0 c 0.05579,0.104589 0.0584,0.228309 -0.0062,0.320913 -0.06471,0.09276 -0.173887,0.155284 -0.322977,0.209285 -0.07875,0.02855 -0.268425,0.102209 -0.416512,0.162269 -0.493678,0.200263 -1.23398,0.418359 -1.727028,0.508 -0.259644,0.0472 -0.60212,0.112236 -0.758092,0.144172 -0.160896,0.03299 -0.439008,0.08123 -0.625285,0.108505 -0.501708,0.07355 -0.885118,0.302313 -1.16427,0.6935 -0.328842,0.460851 -0.771366,1.231741 -0.962215,1.674309 l -0.191204,0.442886 0.128159,0.532765 c 0.209489,0.871591 0.3845,2.16178 0.386022,2.85565 0.0026,1.22253 -0.523476,2.65956 -1.385962,3.80185 -0.183652,0.24318 -0.406614,0.56099 -0.487825,0.6935 -0.0859,0.14017 -0.204415,0.33274 -0.262517,0.42786 -0.06602,0.10813 -0.0925,0.1919 -0.0925,0.24651 0,0.0532 0.0029,0.0568 0.0041,0.0584 0.0013,0.003 0.02813,0.0225 0.09715,0.0568 0.206517,0.10279 0.704768,0.17481 1.225245,0.15608 0.244232,-0.009 0.526283,-0.0316 0.591696,-0.0439 0.09777,-0.0185 0.307684,-0.0411 0.485759,-0.0532 0.167129,-0.0114 0.476909,-0.0554 0.672828,-0.0961 0.101925,-0.0212 0.204295,-0.0408 0.288353,-0.0548 0.08406,-0.014 0.140168,-0.0233 0.185518,-0.0233 0.04912,0 0.281416,-0.041 0.89762,-0.17675 0.06084,-0.0135 0.121124,-0.0233 0.172082,-0.029 0.02548,-0.003 0.04825,-0.004 0.06925,-0.004 0.02101,-2.3e-4 0.03546,-0.003 0.06873,0.01 0.100325,0.0385 0.138226,0.13047 0.161229,0.22014 0.02302,0.0897 0.03048,0.18743 -0.02429,0.27389 -0.0318,0.0501 -0.06468,0.0555 -0.105939,0.0708 -0.04126,0.0153 -0.09469,0.0306 -0.168981,0.0486 -0.148569,0.0359 -0.377992,0.0821 -0.72812,0.14883 -0.192501,0.0367 -0.49326,0.095 -0.668176,0.1292 -0.18061,0.0353 -0.480592,0.0774 -0.677995,0.0951 -0.191035,0.0169 -0.44368,0.0455 -0.552937,0.0615 -0.126997,0.0185 -0.437174,0.0374 -0.711068,0.046 -0.396555,0.0124 -0.572521,0.003 -0.864547,-0.047 a 0.09061445,0.09061445 0 0 1 -0.01344,-0.003 c -0.434631,-0.0753 -0.686358,-0.18529 -0.882634,-0.39791 -0.06628,-0.0718 -0.114366,-0.13954 -0.137459,-0.22376 -0.0231,-0.0842 -0.02156,-0.17436 -0.01085,-0.29919 0.0074,-0.0861 0.04275,-0.19142 0.0894,-0.30594 0.04665,-0.11448 0.105035,-0.23278 0.165365,-0.32554 0.05589,-0.086 0.158808,-0.25074 0.227377,-0.3638 0.07462,-0.12303 0.267613,-0.39569 0.437698,-0.62013 0.166389,-0.21961 0.349718,-0.49316 0.391192,-0.57515 0.05301,-0.1048 0.18955,-0.35854 0.305924,-0.56949 0.235924,-0.42765 0.430969,-0.98383 0.500745,-1.4247 0.08923,-0.56388 0.112803,-0.93562 0.08165,-1.20923 -0.01728,-0.15176 -0.04499,-0.41849 -0.06201,-0.59428 -0.02638,-0.27241 -0.08958,-0.70829 -0.151929,-1.079023 -0.03021,-0.179626 -0.0599,-0.340889 -0.08527,-0.464556 -0.01265,0.02725 -0.01892,0.03966 -0.0341,0.07287 -0.09194,0.200951 -0.230635,0.510937 -0.420648,0.941019 -0.0719,0.16272 -0.141833,0.31572 -0.196887,0.43151 -0.02753,0.0579 -0.05095,0.10607 -0.06976,0.14261 -0.0094,0.0183 -0.01757,0.0339 -0.02479,0.0465 -0.0072,0.0127 -0.0084,0.018 -0.02635,0.0372 -0.03608,0.0385 -0.0809,0.0485 -0.120406,0.0506 -0.0395,0.003 -0.07845,-0.004 -0.117306,-0.0151 -0.07771,-0.0222 -0.155837,-0.0632 -0.214455,-0.12867 -0.01484,-0.0164 -0.03298,-0.0353 -0.04599,-0.0661 -0.01302,-0.0309 -0.01445,-0.0686 -0.0088,-0.10078 0.01135,-0.0644 0.04127,-0.1284 0.09612,-0.25527 0.192442,-0.44519 0.551093,-1.242854 0.759127,-1.687751 l 0.183967,-0.392747 -0.07752,-0.335889 c -0.04225,-0.18288 -0.06455,-0.271806 -0.06821,-0.34417 -0.0019,-0.03619 0.0036,-0.07416 0.01963,-0.105436 0.01606,-0.03122 0.03576,-0.04919 0.05168,-0.06511 0.07695,-0.07694 0.182843,-0.09668 0.28267,-0.09663 0.04991,5.3e-5 0.09865,0.0066 0.144177,0.02328 0.01468,0.0053 0.02392,0.02381 0.03824,0.03204 0.01558,-0.02987 0.02659,-0.0472 0.05994,-0.121946 0.125365,-0.281067 0.343514,-0.655902 0.569992,-0.999437 0.226478,-0.343509 0.456851,-0.651537 0.622702,-0.806662 0.416494,-0.389652 0.723249,-0.54057 1.27589,-0.627883 0.210598,-0.03326 0.556808,-0.09551 0.764812,-0.137953 0.210656,-0.04299 0.535422,-0.107739 0.722953,-0.143669 0.371928,-0.07128 1.067261,-0.280062 1.312582,-0.391187 0.101584,-0.04604 0.331925,-0.139673 0.520899,-0.211878 0.182565,-0.0698 0.291237,-0.109035 0.391707,-0.109035 z m -6.245614,3.54965 c 2.38e-4,0.0029 9.3e-5,0.0034 5.29e-4,0.0066 0.0011,0.0074 0.0051,0.01667 0.0072,0.0254 2.64e-4,-0.0056 -0.0077,-0.02892 -0.0078,-0.03204 z M 23.557817,98.54307 c 3.7e-5,0 5.29e-4,0.0093 5.29e-4,0.0093 0,0 -0.0026,-0.0026 -0.0026,-0.0026 0.0011,-0.004 0.0011,-0.004 0.0021,-0.0077 z m 8.970513,1.48775 c -0.132313,0.13073 -0.276606,0.27567 -0.464055,0.46821 -0.464238,0.47683 -1.053201,1.09728 -1.549776,1.63917 -0.562872,0.61428 -0.947132,1.00243 -2.129584,2.15231 -0.169717,0.16504 -0.22443,0.22256 -0.339516,0.33642 0.519483,-0.33314 0.85012,-0.61336 1.329635,-1.17666 0.480388,-0.56438 0.844592,-0.89485 1.406633,-1.27487 0.820179,-0.55462 1.136314,-0.92284 1.620057,-1.88672 0.04949,-0.0986 0.08465,-0.17229 0.126606,-0.25786 z"
       style="fill:url(#linearGradient4315);stroke:none;stroke-width:0.2;stroke-miterlimit:4;stroke-dasharray:none" />
    <g
       transform="matrix(0.28222223,0,0,0.28222223,-125.89613,-331.26147)"
       id="g1888">
      <path
         id="path2154-97-4"
         d="m 623.82632,1526.0588 v 15.0678 h 32.87532 v 16.4379 l 16.43764,-2e-4 v -16.4377 h 16.43767 v 16.4379 h 16.43766 v 16.4375 h 16.17602 v -16.4375 h 16.6993 v -16.4379 h 16.43764 v 16.4379 h 16.43767 v -16.4379 h 98.62593 v 16.4379 h 16.43766 v -16.4379 h 15.06783 v -15.0678 z"
         style="fill:none;stroke:url(#linearGradient4315);stroke-width:5.21574879;stroke-linecap:butt;stroke-linejoin:round;stroke-miterlimit:4;stroke-dasharray:none;stroke-opacity:1" />
      <g
         transform="translate(-22.923416,186.95703)"
         aria-label="DisProt"
         style="font-style:normal;font-weight:normal;font-size:12px;line-height:0%;font-family:sans-serif;text-align:start;letter-spacing:0px;word-spacing:0px;text-anchor:start;fill:url(#linearGradient4315);fill-opacity:1;stroke:none;stroke-width:2.5;stroke-linecap:butt;stroke-linejoin:miter;stroke-miterlimit:4;stroke-dasharray:none;stroke-opacity:1"
         id="text4136-3-2-7-42-4-8-91-36-7">
        <path
           d="m 657.30039,1286.4955 v 31.1384 h 4.71691 q 8.06659,0 12.30497,-3.9991 4.27256,-3.9991 4.27256,-11.6214 0,-7.588 -4.23838,-11.553 -4.23838,-3.9649 -12.33915,-3.9649 z m -13.15949,-9.9465 h 13.87728 q 11.62137,0 17.29533,1.6748 5.70814,1.6407 9.77562,5.6056 3.58895,3.4522 5.33215,7.9641 1.74321,4.5118 1.74321,10.2199 0,5.7765 -1.74321,10.3225 -1.7432,4.5119 -5.33215,7.9641 -4.10166,3.9649 -9.84398,5.6398 -5.74233,1.6406 -17.22697,1.6406 H 644.1409 Z"
           style="font-style:normal;font-variant:normal;font-weight:bold;font-stretch:normal;font-size:70.00164795px;line-height:1.25;font-family:'DejaVu Sans';-inkscape-font-specification:'DejaVu Sans Bold';fill:url(#linearGradient4315);fill-opacity:1;stroke:none;stroke-width:2.5;stroke-miterlimit:4;stroke-dasharray:none;stroke-opacity:1"
           id="path1804-8" />
        <path
           d="m 701.70085,1289.2983 h 12.23661 v 38.2821 h -12.23661 z m 0,-14.9027 h 12.23661 v 9.9807 h -12.23661 z"
           style="font-style:normal;font-variant:normal;font-weight:bold;font-stretch:normal;font-size:70.00164795px;line-height:1.25;font-family:'DejaVu Sans';-inkscape-font-specification:'DejaVu Sans Bold';fill:url(#linearGradient4315);fill-opacity:1;stroke:none;stroke-width:2.5;stroke-miterlimit:4;stroke-dasharray:none;stroke-opacity:1"
           id="path1806-4" />
        <path
           d="m 755.67185,1290.4946 v 9.2971 q -3.93076,-1.6407 -7.58807,-2.461 -3.65731,-0.8203 -6.90446,-0.8203 -3.48641,0 -5.19544,0.8887 -1.67484,0.8545 -1.67484,2.666 0,1.4698 1.26468,2.256 1.29886,0.7861 4.61436,1.1621 l 2.15338,0.3076 q 9.39963,1.1963 12.64678,3.9308 3.24714,2.7344 3.24714,8.5793 0,6.1183 -4.51182,9.1945 -4.51183,3.0763 -13.46711,3.0763 -3.79404,0 -7.86152,-0.6153 -4.0333,-0.581 -8.30586,-1.7774 v -9.297 q 3.65732,1.7773 7.48553,2.666 3.8624,0.8887 7.82733,0.8887 3.58896,0 5.40052,-0.9912 1.81157,-0.9912 1.81157,-2.9395 0,-1.6407 -1.26468,-2.4269 -1.2305,-0.8203 -4.95617,-1.2646 l -2.15337,-0.2735 q -8.16914,-1.0254 -11.45047,-3.794 -3.28133,-2.7686 -3.28133,-8.4084 0,-6.0841 4.17002,-9.0237 4.17002,-2.9395 12.78351,-2.9395 3.38387,0 7.10954,0.5127 3.72567,0.5127 8.10078,1.6065 z"
           style="font-style:normal;font-variant:normal;font-weight:bold;font-stretch:normal;font-size:70.00164795px;line-height:1.25;font-family:'DejaVu Sans';-inkscape-font-specification:'DejaVu Sans Bold';fill:url(#linearGradient4315);fill-opacity:1;stroke:none;stroke-width:2.5;stroke-miterlimit:4;stroke-dasharray:none;stroke-opacity:1"
           id="path1808-5" />
        <path
           d="m 768.011,1276.549 h 21.84133 q 9.74145,0 14.93688,4.3409 5.22962,4.3067 5.22962,12.305 0,8.0324 -5.22962,12.3733 -5.19543,4.3067 -14.93688,4.3067 h -8.68184 v 17.7055 H 768.011 Z m 13.15949,9.5363 v 14.2533 h 7.28044 q 3.82822,0 5.91323,-1.8458 2.08501,-1.8799 2.08501,-5.2979 0,-3.4181 -2.08501,-5.2638 -2.08501,-1.8458 -5.91323,-1.8458 z"
           style="font-style:normal;font-variant:normal;font-weight:bold;font-stretch:normal;font-size:70.00164795px;line-height:1.25;font-family:'DejaVu Sans';-inkscape-font-specification:'DejaVu Sans Bold';fill:url(#linearGradient4315);fill-opacity:1;stroke:none;stroke-width:2.5;stroke-miterlimit:4;stroke-dasharray:none;stroke-opacity:1"
           id="path1810-0" />
        <path
           d="m 847.17302,1299.7233 q -1.60648,-0.7519 -3.21297,-1.0937 -1.5723,-0.376 -3.17878,-0.376 -4.71691,0 -7.28045,3.042 -2.52935,3.0079 -2.52935,8.6477 v 17.6371 h -12.23662 v -38.2821 h 12.23662 v 6.2892 q 2.35845,-3.7599 5.40051,-5.4689 3.07625,-1.7432 7.34881,-1.7432 0.61525,0 1.33304,0.068 0.71779,0.034 2.08501,0.2051 z"
           style="font-style:normal;font-variant:normal;font-weight:bold;font-stretch:normal;font-size:70.00164795px;line-height:1.25;font-family:'DejaVu Sans';-inkscape-font-specification:'DejaVu Sans Bold';fill:url(#linearGradient4315);fill-opacity:1;stroke:none;stroke-width:2.5;stroke-miterlimit:4;stroke-dasharray:none;stroke-opacity:1"
           id="path1812-3" />
        <path
           d="m 871.5437,1297.1256 q -4.06747,0 -6.22085,2.9395 -2.11919,2.9054 -2.11919,8.4084 0,5.5031 2.11919,8.4426 2.15338,2.9054 6.22085,2.9054 3.99912,0 6.11831,-2.9054 2.11919,-2.9395 2.11919,-8.4426 0,-5.503 -2.11919,-8.4084 -2.11919,-2.9395 -6.11831,-2.9395 z m 0,-8.7502 q 9.87817,0 15.41541,5.3322 5.57142,5.3321 5.57142,14.7659 0,9.4339 -5.57142,14.766 -5.53724,5.3322 -15.41541,5.3322 -9.91234,0 -15.51794,-5.3322 -5.57142,-5.3321 -5.57142,-14.766 0,-9.4338 5.57142,-14.7659 5.6056,-5.3322 15.51794,-5.3322 z"
           style="font-style:normal;font-variant:normal;font-weight:bold;font-stretch:normal;font-size:70.00164795px;line-height:1.25;font-family:'DejaVu Sans';-inkscape-font-specification:'DejaVu Sans Bold';fill:url(#linearGradient4315);fill-opacity:1;stroke:none;stroke-width:2.5;stroke-miterlimit:4;stroke-dasharray:none;stroke-opacity:1"
           id="path1814-6" />
        <path
           d="m 914.81622,1278.4289 v 10.8694 h 12.6126 v 8.7502 h -12.6126 v 16.2357 q 0,2.6661 1.05959,3.6232 1.0596,0.9228 4.2042,0.9228 h 6.28921 v 8.7502 h -10.49341 q -7.24626,0 -10.28832,-3.0078 -3.00789,-3.0421 -3.00789,-10.2884 v -16.2357 h -6.08413 v -8.7502 h 6.08413 v -10.8694 z"
           style="font-style:normal;font-variant:normal;font-weight:bold;font-stretch:normal;font-size:70.00164795px;line-height:1.25;font-family:'DejaVu Sans';-inkscape-font-specification:'DejaVu Sans Bold';fill:url(#linearGradient4315);fill-opacity:1;stroke:none;stroke-width:2.5;stroke-miterlimit:4;stroke-dasharray:none;stroke-opacity:1"
           id="path1816-1" />
      </g>
    </g>
    <path
       id="path2004-3-1-2"
       d="m 41.914301,107.4231 c -0.381522,-0.15564 -1.145867,-0.5374 -1.249773,-0.62421 l -0.08718,-0.0728 0.145302,-0.31813 c 0.132653,-0.29043 0.273995,-0.62077 0.57654,-1.34747 0.07589,-0.18228 0.134349,-0.40806 0.188674,-0.72864 0.04329,-0.25546 0.0726,-0.4706 0.06513,-0.47805 -0.03399,-0.034 -0.674243,0.60677 -1.020868,1.0217 -0.414593,0.49626 -0.858723,0.82919 -1.1601,0.86961 -0.336113,0.0451 -1.088144,-0.22465 -1.642917,-0.58928 -0.562365,-0.3696 -0.82859,-0.69209 -1.034144,-1.25267 -0.173604,-0.47343 -0.451389,-1.4075 -0.481911,-1.62041 -0.06285,-0.43846 -0.105086,-0.85736 -0.119578,-1.18593 l -0.01507,-0.34188 0.0852,-0.0324 c 0.236779,-0.09 1.213993,0.007 1.552411,0.1537 0.13216,0.0574 0.151847,0.079 0.169749,0.18627 0.01115,0.0667 0.04779,0.25369 0.08143,0.41543 0.03364,0.16174 0.06117,0.34913 0.06117,0.41644 0,0.0673 0.03633,0.22883 0.08072,0.35891 0.128168,0.37552 0.196455,0.67544 0.285914,1.25574 0.08973,0.58212 0.1383,0.81224 0.171418,0.81224 0.03488,0 0.487542,-0.47684 0.725696,-0.76446 0.265805,-0.321 0.709185,-0.76646 0.99774,-1.00242 0.154528,-0.12635 0.263581,-0.18604 0.429996,-0.23535 0.340631,-0.10092 0.530409,-0.0944 0.796302,0.0274 0.504407,0.23112 1.524827,1.05148 1.677303,1.34849 0.114941,0.22386 0.157065,0.55321 0.119817,0.93675 -0.04997,0.51449 -0.162419,0.88895 -0.506922,1.68803 -0.441373,1.02376 -0.534523,1.21886 -0.580694,1.21618 -0.02232,0 -0.16245,-0.0521 -0.311359,-0.1128 z m -0.87242,-8.088286 c -0.09969,-0.149804 -0.255151,-0.411396 -0.345473,-0.581322 -0.09032,-0.169897 -0.225702,-0.405497 -0.300841,-0.523522 -0.07514,-0.118025 -0.215505,-0.371884 -0.311917,-0.564134 -0.277142,-0.552591 -1.59921,-2.827359 -1.713326,-2.947952 -0.01913,-0.02032 -0.0234,0.0031 -0.01168,0.0637 0.01013,0.05258 0.05455,0.554228 0.09866,1.114835 0.04412,0.560578 0.09466,1.142068 0.112316,1.292154 0.01767,0.150086 0.0321,0.2956 0.0321,0.323342 0,0.03161 -0.161725,0.141591 -0.432881,0.29433 l -0.432884,0.243868 -0.235692,-0.03802 c -0.12963,-0.02088 -0.248728,-0.05399 -0.26466,-0.07352 -0.01724,-0.02117 -0.0175,-0.106313 -5.55e-4,-0.210679 0.03278,-0.202325 0.102836,-0.776902 0.172824,-1.417405 0.02678,-0.245279 0.08561,-0.703241 0.130711,-1.017693 0.07198,-0.501961 0.08054,-0.651651 0.07012,-1.226312 L 37.596823,93.411954 37.25031,92.8864 C 37.059712,92.597351 36.779968,92.160075 36.628637,91.914711 36.47731,91.669319 36.19546,91.246494 36.00231,90.975081 35.57373,90.372847 35.235515,89.868177 35.11233,89.64714 l -0.09226,-0.165551 0.07402,-0.07877 0.07401,-0.0788 -0.08784,-0.217509 c -0.106523,-0.263765 -0.135089,-0.607737 -0.07924,-0.953967 0.02131,-0.132109 0.03266,-0.246268 0.02523,-0.253718 -0.0074,-0.0073 -0.16275,0.122541 -0.345133,0.288826 -0.253543,0.231168 -0.406614,0.341122 -0.650141,0.466993 -0.30408,0.157169 -0.332839,0.165495 -0.634619,0.183895 -0.313952,0.01919 -0.318411,0.01834 -0.652963,-0.111054 -0.799527,-0.3094 -1.018743,-0.54054 -1.659267,-1.749608 -0.407074,-0.768407 -0.624862,-1.045521 -0.945893,-1.203537 -0.179826,-0.08853 -0.221971,-0.08294 -0.460795,0.06113 -0.359896,0.217114 -1.155774,0.57881 -1.379791,0.627042 -0.122631,0.02653 -0.416469,0.05769 -0.652963,0.06951 -0.312358,0.01552 -0.534577,0.04736 -0.812227,0.116078 -0.352227,0.08721 -0.621106,0.208223 -0.621106,0.279597 0,0.0158 0.04221,0.1178 0.09381,0.226907 0.0516,0.109107 0.103242,0.27384 0.114768,0.366099 0.02518,0.201535 0.09936,0.281037 0.476233,0.510342 0.140149,0.08529 0.344139,0.239974 0.453306,0.343775 0.166742,0.158524 0.214054,0.229052 0.29578,0.440972 0.06443,0.167076 0.103869,0.337651 0.116786,0.50515 0.01626,0.21082 0.02865,0.252871 0.07453,0.252871 0.03027,0 0.232393,0.06153 0.449165,0.136765 0.479248,0.166285 0.849772,0.411395 1.343198,0.888548 l 0.323124,0.312449 h 0.17613 c 0.259049,0 0.743153,0.0817 1.052062,0.176953 0.148906,0.04589 0.433098,0.171027 0.631534,0.278074 0.306886,0.165551 0.412158,0.244827 0.704543,0.530634 0.189063,0.184799 0.371974,0.377416 0.406479,0.428018 l 0.06273,0.09201 0.259159,-0.03788 c 0.586754,-0.08579 1.015139,0.06042 1.904226,0.649986 0.923824,0.612592 1.185023,0.947618 1.298702,1.665704 0.07403,0.467614 0.06545,0.945812 -0.02898,1.615214 -0.09311,0.660062 -0.163587,0.886827 -0.322958,1.039256 -0.06177,0.05907 -0.19777,0.211328 -0.302215,0.338328 L 35.603565,97.91882 H 35.43816 c -0.433959,0 -1.454951,-0.423418 -1.454951,-0.603391 0,-0.09045 0.09387,-0.189597 0.318166,-0.336014 l 0.218806,-0.142833 0.05402,-0.247226 c 0.02972,-0.135975 0.102154,-0.407501 0.160983,-0.603448 0.05883,-0.195918 0.129207,-0.482572 0.156399,-0.637032 0.07061,-0.401038 0.09708,-1.154317 0.05006,-1.424347 -0.0374,-0.214743 -0.135371,-0.455394 -0.206234,-0.506561 -0.01953,-0.01411 -0.145892,-0.0175 -0.280769,-0.0073 -0.249685,0.01863 -0.717146,0.172268 -0.941248,0.309344 l -0.103519,0.0633 v 0.284424 c 0,0.427538 -0.09274,0.786835 -0.333,1.290066 -0.167665,0.351169 -0.237687,0.461292 -0.390288,0.613918 -0.135252,0.135241 -0.21617,0.1905 -0.296711,0.202607 -0.386303,0.05814 -1.216714,-0.278638 -1.566873,-0.635423 -0.127996,-0.130415 -0.13502,-0.147602 -0.147018,-0.359946 -0.02819,-0.499195 0.116843,-1.016085 0.404933,-1.443003 0.158936,-0.235542 0.576699,-0.689892 0.687327,-0.74755 0.05957,-0.03104 0.06052,-0.044 0.0206,-0.281545 -0.04335,-0.258007 -0.238444,-0.695113 -0.395557,-0.886262 l -0.07743,-0.09418 -0.436002,0.110123 -0.436011,0.110123 -0.01177,0.557389 c -0.01202,0.570089 -0.04513,0.792621 -0.175344,1.178532 -0.112805,0.334321 -0.227974,0.542375 -0.40815,0.737334 -0.19545,0.211469 -0.37445,0.28225 -0.711773,0.281432 -0.370699,0 -0.950234,-0.186267 -1.230827,-0.393672 -0.35225,-0.26035 -0.516123,-0.508564 -0.516123,-0.781671 0,-0.290802 0.210846,-0.83343 0.477278,-1.228259 0.218555,-0.323911 0.812238,-0.908394 1.091426,-1.074538 0.118249,-0.07036 0.214551,-0.137047 0.214004,-0.148195 -0.0014,-0.02822 -0.128931,-0.230067 -0.208475,-0.329918 -0.136288,-0.171083 -0.412349,-0.220443 -0.95992,-0.171732 -0.161397,0.01439 -0.30666,0.04256 -0.322797,0.06265 -0.01614,0.02004 -0.04,0.0867 -0.05302,0.147997 -0.08155,0.384104 -0.536654,1.137553 -1.038299,1.718987 -0.317285,0.367708 -0.639854,0.511697 -0.901497,0.402393 -0.477878,-0.199672 -1.141569,-1.28349 -1.052847,-1.719326 0.06325,-0.310699 0.160108,-0.565743 0.285855,-0.752743 0.204698,-0.304405 0.645101,-0.619535 1.02428,-0.732903 0.1125,-0.03364 0.140327,-0.05975 0.183148,-0.171874 0.107657,-0.281911 0.07859,-0.366465 -0.41707,-1.213047 -0.41091,-0.701831 -0.520449,-0.996753 -0.518183,-1.395194 0.0014,-0.245195 0.01631,-0.329071 0.09141,-0.514548 0.07162,-0.176812 0.107721,-0.227555 0.17874,-0.251234 0.0821,-0.02738 0.103338,-0.01496 0.274559,0.162334 l 0.185573,0.191996 0.201738,-0.107131 c 0.296381,-0.157368 0.920437,-0.297491 1.421508,-0.319194 0.219998,-0.0096 0.500171,-0.03869 0.622614,-0.06483 0.230282,-0.04919 0.828821,-0.319109 1.263441,-0.569807 0.398339,-0.229757 0.689694,-0.272542 1.07801,-0.158298 0.07883,0.02314 0.263051,0.05105 0.409374,0.06189 0.16573,0.01242 0.3115,0.04295 0.386608,0.08125 0.326675,0.166652 0.60478,0.865011 0.605276,1.519908 0,0.218017 0.0171,0.338554 0.06594,0.469053 0.06725,0.179748 0.192609,0.304546 0.305921,0.304546 0.106474,0 0.368517,-0.207433 0.870585,-0.689158 0.728554,-0.699008 1.129276,-0.967176 1.44526,-0.967148 0.182344,2.9e-5 0.431464,0.101657 0.664015,0.270877 0.135696,0.09872 0.228397,0.1432 0.298546,0.1432 0.145746,0 0.299591,0.149973 0.299591,0.292043 0,0.06288 0.0341,0.157424 0.08246,0.2286 0.119013,0.175148 0.08815,0.259391 -0.131933,0.360144 -0.108009,0.04944 -0.191016,0.112296 -0.21783,0.164931 -0.124971,0.245279 -0.191593,1.174242 -0.09994,1.393585 0.04065,0.09731 0.05509,0.107668 0.109389,0.07863 0.03441,-0.01834 0.08262,-0.03347 0.107149,-0.03347 0.02452,0 0.264781,0.250387 0.533911,0.556429 0.269121,0.30607 0.495139,0.550644 0.502268,0.543504 0.0071,-0.0071 -0.02362,-0.12494 -0.06834,-0.261818 -0.0628,-0.192278 -0.335469,-1.121551 -0.423489,-1.443313 -0.0072,-0.02625 0.02069,-0.08941 0.06191,-0.140264 0.07174,-0.08848 0.1125,-0.09965 0.946021,-0.259644 0.479075,-0.09192 0.888602,-0.160416 0.910062,-0.152175 0.02145,0.0082 0.0569,0.110744 0.07875,0.227782 0.02184,0.117037 0.116171,0.43846 0.209584,0.714248 0.09341,0.275787 0.199164,0.645301 0.235004,0.821182 0.09391,0.460812 0.134538,1.066123 0.09615,1.432588 -0.01744,0.166399 -0.0464,0.544012 -0.06437,0.839076 l -0.03268,0.536504 0.341529,0.450907 c 0.187847,0.247988 0.436118,0.572741 0.551725,0.721642 0.454761,0.58578 1.881442,2.7305 2.150592,3.232968 0.08445,0.157678 0.220306,0.387011 0.301891,0.509637 0.08158,0.122626 0.249893,0.39497 0.37402,0.605169 0.124124,0.210228 0.262622,0.431603 0.307777,0.491942 0.04515,0.06034 0.0821,0.126407 0.0821,0.146812 0,0.02032 -0.12956,0.12288 -0.287912,0.227753 -0.249992,0.16558 -0.28133,0.196145 -0.237947,0.232156 0.06726,0.0558 0.131183,0.02399 0.480514,-0.239719 0.156329,-0.117969 0.391733,-0.286428 0.523125,-0.37434 0.385103,-0.257669 1.045049,-0.76406 1.3453,-1.032284 0.153043,-0.136737 0.406608,-0.362938 0.563473,-0.502666 0.156864,-0.139728 0.280705,-0.258572 0.275197,-0.264075 -0.0055,-0.0054 -0.06152,0.02032 -0.124466,0.05752 -0.06295,0.03714 -0.129621,0.05814 -0.148165,0.04668 -0.04244,-0.02625 -0.554395,-0.703665 -0.715019,-0.94615 -0.11209,-0.169192 -0.25139,-0.481838 -0.508076,-1.140291 -0.10339,-0.265204 -0.167722,-0.640898 -0.127632,-0.745377 0.01696,-0.0442 0.419562,-0.305731 0.470633,-0.305731 0.0092,0 0.155079,0.186605 0.324088,0.414641 0.384507,0.518865 0.534249,0.637935 1.100081,0.87486 0.76504,0.320323 0.726471,0.295261 0.900776,0.584934 0.08529,0.141732 0.147582,0.277227 0.138422,0.301103 -0.0092,0.02399 -0.143446,0.120057 -0.298413,0.213783 l -0.281754,0.170378 -0.0024,0.148872 c -0.004,0.26687 -0.09627,0.380097 -0.922366,1.132022 -0.675067,0.614454 -1.206697,1.038013 -1.719109,1.369653 -0.105113,0.06804 -0.298616,0.204046 -0.430002,0.30226 -0.375519,0.280726 -0.49099,0.34908 -0.668697,0.395986 -0.146708,0.03869 -0.179262,0.0377 -0.282092,-0.0085 -0.06394,-0.02876 -0.162267,-0.0946 -0.218514,-0.146332 l -0.102269,-0.09409 -0.297462,0.196144 c -0.163602,0.107894 -0.305348,0.196145 -0.314986,0.196145 -0.0097,0 -0.09909,-0.122569 -0.198771,-0.272345 z"
       style="fill:url(#linearGradient4315);fill-opacity:1;stroke-width:0.03185187" />
  </g>
</svg>
