<?xml version="1.0" encoding="UTF-8" standalone="no"?>
<svg
   xmlns:dc="http://purl.org/dc/elements/1.1/"
   xmlns:cc="http://creativecommons.org/ns#"
   xmlns:rdf="http://www.w3.org/1999/02/22-rdf-syntax-ns#"
   xmlns:svg="http://www.w3.org/2000/svg"
   xmlns="http://www.w3.org/2000/svg"
   xmlns:sodipodi="http://sodipodi.sourceforge.net/DTD/sodipodi-0.dtd"
   xmlns:inkscape="http://www.inkscape.org/namespaces/inkscape"
   height="55.001331mm"
   width="75.462341mm"
   id="svg4221"
   xml:space="preserve"
   viewBox="0 0 267.38626 194.8866"
   y="0px"
   x="0px"
   version="1.1"
   inkscape:version="0.92.3 (2405546, 2018-03-11)"
   sodipodi:docname="mdb_logo_bgprimary.svg"><sodipodi:namedview
     pagecolor="#ffffff"
     bordercolor="#666666"
     borderopacity="1"
     objecttolerance="10"
     gridtolerance="10"
     guidetolerance="10"
     inkscape:pageopacity="0"
     inkscape:pageshadow="2"
     inkscape:window-width="1871"
     inkscape:window-height="1025"
     id="namedview4774"
     showgrid="false"
     units="mm"
     fit-margin-top="1"
     fit-margin-left="1"
     fit-margin-bottom="1"
     inkscape:zoom="2.2845896"
     inkscape:cx="149.74727"
     inkscape:cy="103.3346"
     inkscape:window-x="49"
     inkscape:window-y="27"
     inkscape:window-maximized="1"
     inkscape:current-layer="svg4221"
     fit-margin-right="1" /><metadata
     id="metadata4266"><rdf:RDF><cc:Work
         rdf:about=""><dc:format>image/svg+xml</dc:format><dc:type
           rdf:resource="http://purl.org/dc/dcmitype/StillImage" /><dc:title></dc:title></cc:Work></rdf:RDF></metadata><defs
     id="defs4264" /><style
     id="style4223"
     type="text/css">
	.st0{display:none;}
	.st1{display:inline;fill:#3885D7;}
	.st2{fill:none;stroke:#FFFFFF;stroke-width:4;stroke-linejoin:round;stroke-miterlimit:10;}
	.st3{fill:none;stroke:#FFFFFF;stroke-width:4;stroke-linecap:round;stroke-linejoin:round;stroke-miterlimit:10;}
	.st4{fill:none;stroke:#FFFFFF;stroke-miterlimit:10;}
	.st5{fill:#FFFFFF;}
</style><g
     transform="translate(-97.946148,5.343292)"
     style="display:none"
     class="st0"
     id="background"><rect
       style="display:inline;fill:#3885d7"
       y="0"
       x="0"
       id="rect4226"
       height="186"
       width="363.29999"
       class="st1" /></g><g
     id="g4241"
     style="fill:#d3d3d3;fill-opacity:1;stroke:#d3d3d3;stroke-opacity:1"
     transform="translate(-777.50593,-252.47466)"><path
       inkscape:connector-curvature="0"
       class="st5"
       d="m 19.7,15.5 13.6,39.4 0.2,0 13.7,-39.4 14,0 0,53.5 -10.6,0 0,-16 1,-23.6 -0.2,0 -14.4,39.5 -7.2,0 -14.2,-39.4 -0.2,0 1,23.5 0,15.9 -10.7,0 0,-53.4 14,0 z"
       id="path4243"
       style="fill:#d3d3d3;fill-opacity:1;stroke:#d3d3d3;stroke-opacity:1" /><path
       inkscape:connector-curvature="0"
       class="st5"
       d="m 68.8,48.7 c 0,-5.9 1.7,-10.8 5,-14.6 3.3,-3.8 7.9,-5.7 13.7,-5.7 5.9,0 10.5,1.9 13.8,5.7 3.3,3.8 5,8.6 5,14.6 l 0,0.8 c 0,6 -1.7,10.8 -5,14.6 -3.3,3.8 -7.9,5.6 -13.7,5.6 -5.9,0 -10.5,-1.9 -13.8,-5.6 -3.3,-3.8 -5,-8.6 -5,-14.6 l 0,-0.8 z m 10.7,0.7 c 0,3.6 0.6,6.5 1.9,8.7 1.3,2.2 3.3,3.3 6.2,3.3 2.8,0 4.8,-1.1 6.1,-3.3 1.3,-2.2 1.9,-5.1 1.9,-8.7 l 0,-0.8 c 0,-3.5 -0.6,-6.4 -1.9,-8.6 -1.3,-2.2 -3.3,-3.3 -6.1,-3.3 -2.8,0 -4.8,1.1 -6.1,3.4 -1.3,2.2 -1.9,5.1 -1.9,8.6 l 0,0.7 z"
       id="path4245"
       style="fill:#d3d3d3;fill-opacity:1;stroke:#d3d3d3;stroke-opacity:1" /><path
       inkscape:connector-curvature="0"
       class="st5"
       d="m 148.7,50.1 c 0,5.9 -1.3,10.7 -4,14.2 -2.6,3.5 -6.5,5.3 -11.5,5.3 -2.3,0 -4.3,-0.5 -6,-1.5 -1.7,-1 -3.2,-2.4 -4.4,-4.2 l -0.8,4.9 -9.2,0 0,-57.2 10.7,0 0,21.8 c 1.2,-1.6 2.5,-2.8 4.1,-3.7 1.6,-0.9 3.4,-1.3 5.5,-1.3 5,0 8.9,1.9 11.5,5.7 2.6,3.8 4,8.9 4,15.2 l 0,0.8 z M 138,49.4 c 0,-3.9 -0.6,-7 -1.7,-9.3 -1.1,-2.3 -3.1,-3.4 -5.8,-3.4 -1.7,0 -3.1,0.4 -4.2,1.1 -1.2,0.7 -2.1,1.7 -2.7,3 l 0,16.9 c 0.7,1.2 1.6,2.1 2.7,2.8 1.2,0.6 2.6,1 4.3,1 2.8,0 4.7,-1 5.8,-2.9 1.1,-2 1.7,-4.7 1.7,-8.3 l 0,-0.9 z"
       id="path4247"
       style="fill:#d3d3d3;fill-opacity:1;stroke:#d3d3d3;stroke-opacity:1" /><path
       inkscape:connector-curvature="0"
       class="st5"
       d="m 166.6,19.7 -10.7,0 0,-8 10.7,0 0,8 z m 0,49.2 -10.7,0 0,-39.7 10.7,0 0,39.7 z"
       id="path4249"
       style="fill:#d3d3d3;fill-opacity:1;stroke:#d3d3d3;stroke-opacity:1" /><path
       inkscape:connector-curvature="0"
       class="st5"
       d="m 5.7,141 0,-53.5 18.4,0 c 6.5,0 11.9,2.1 16.2,6.3 4.2,4.2 6.4,9.5 6.4,16.1 l 0,8.8 c 0,6.6 -2.1,11.9 -6.4,16.1 C 36,139 30.7,141 24.1,141 l -18.4,0 z m 10.7,-45.2 0,36.9 7.1,0 c 3.8,0 6.9,-1.3 9,-3.9 2.2,-2.6 3.3,-6 3.3,-10.2 l 0,-8.9 c 0,-4.1 -1.1,-7.5 -3.3,-10.1 -2.2,-2.6 -5.2,-3.9 -9,-3.9 l -7.1,0 z"
       id="path4251"
       style="fill:#d3d3d3;fill-opacity:1;stroke:#d3d3d3;stroke-opacity:1" /><path
       inkscape:connector-curvature="0"
       class="st5"
       d="m 55,141 0,-53.5 18,0 c 6.3,0 11.2,1.2 14.7,3.7 3.5,2.4 5.3,6.1 5.3,11 0,2.5 -0.7,4.7 -2,6.6 -1.3,1.9 -3.2,3.4 -5.7,4.4 3.2,0.7 5.6,2.2 7.2,4.4 1.6,2.3 2.4,4.9 2.4,7.8 0,5.1 -1.7,9 -5.1,11.6 -3.4,2.6 -8.2,3.9 -14.4,3.9 l -20.4,0 z m 10.7,-31.1 7.7,0 c 2.9,0 5.1,-0.6 6.6,-1.8 1.5,-1.2 2.3,-2.9 2.3,-5.1 0,-2.5 -0.8,-4.3 -2.3,-5.5 -1.6,-1.2 -3.9,-1.8 -7,-1.8 l -7.3,0 0,14.2 z m 0,7.5 0,15.4 9.9,0 c 2.8,0 5,-0.6 6.5,-1.8 1.5,-1.2 2.2,-3.1 2.2,-5.5 0,-2.6 -0.6,-4.6 -1.9,-6 -1.3,-1.4 -3.3,-2.1 -6,-2.1 l -10.7,0 z"
       id="path4253"
       style="fill:#d3d3d3;fill-opacity:1;stroke:#d3d3d3;stroke-opacity:1" /></g><g
     id="Layer_2"
     style="fill:none;fill-opacity:1;stroke:#000000;stroke-opacity:1"
     transform="translate(-99.056697,14.943292)" /><path
     class="st2"
     d="m 226.4433,27.443292 c -5.1,7 -11.7,12.9 -19.3,17.1 -1.6,0.9 -3.2,1.7 -4.9,2.4 -5.6,2.4 -11.6,3.9 -17.9,4.4 -0.3,0 -0.6,0 -1,0.1 0,0 0,0 0,0 -1.5,1.4 -2.7,3 -3.7,4.8 -1,-1.8 -2.2,-3.4 -3.7,-4.8 -0.9,-0.1 -1.8,-0.1 -2.7,-0.2 -0.8,-0.1 -1.7,-0.2 -2.5,-0.3 -4.8,-0.7 -9.4,-2.1 -13.7,-3.9 -1.7,-0.7 -3.3,-1.5 -4.9,-2.4 -7.7,-4.2 -14.3,-10 -19.3,-17.1 -0.1,1.2 -0.2,2.5 -0.2,3.7 0,10.9 4.6,20.8 11.9,27.8 6.7,6.4 15.8,10.4 25.8,10.6 -0.3,2.2 -0.6,4.3 -1,6.4 v 0 c -2.3,4.4 -5.5,8.3 -9.3,11.4 -2,1.7 -4.2,3.2 -6.6,4.4 v 0 c -2.9,1.6 -6.1,2.7 -9.4,3.5 2.9,-0.4 5.8,-0.8 8.7,-0.9 11.1,-0.7 22.4,0.6 33.4,3.9 0.7,-3.2 1.2,-6.4 1.5,-9.7 0.3,-3.3 0.5,-6.7 0.5,-10.1 0,-3 -0.1,-6 -0.4,-8.9 h 0.4 c 10.3,0 19.6,-4 26.5,-10.6 7.3,-7 11.9,-16.8 11.9,-27.8 0.1,-1.3 0,-2.6 -0.1,-3.8 z"
     id="path4229"
     style="fill:#ffffff;fill-opacity:1;stroke:#2196f3;stroke-width:3.89763779;stroke-linejoin:bevel;stroke-miterlimit:10;stroke-opacity:1;stroke-dasharray:none;stroke-linecap:butt;paint-order:fill markers stroke"
     inkscape:connector-curvature="0" /><path
     class="st3"
     d="m 29.0433,150.84329 c -7.3,-6.4 -13.7,-13.9 -18.8,-22.3 4.9,4.5 10.3,8.5 16.1,11.9 0.5,3.6 1.4,7.1 2.7,10.4 z"
     id="path4231"
     style="fill:#ffffff;fill-opacity:1;stroke:#2196f3;stroke-width:3.89763779;stroke-linecap:butt;stroke-linejoin:bevel;stroke-miterlimit:10;stroke-opacity:1;stroke-dasharray:none;paint-order:fill markers stroke"
     inkscape:connector-curvature="0" /><path
     class="st4"
     d="m 41.5433,113.64329 c 0,1.2 -1,2.2 -2.2,2.2 -1.2,0 -2.2,-1 -2.2,-2.2 0,-1.2 1,-2.2 2.2,-2.2 1.3,0 2.2,1 2.2,2.2 z"
     id="path4233"
     style="fill:#ffffff;fill-opacity:1;stroke:#2196f3;stroke-miterlimit:10;stroke-opacity:1;stroke-width:3.89763779;stroke-dasharray:none;stroke-linejoin:bevel;stroke-linecap:butt;paint-order:fill markers stroke"
     inkscape:connector-curvature="0" /><path
     class="st3"
     d="m 41.7433,160.14329 c -1.5,-1 -3,-1.9 -4.5,-3 v 0 c -1.3,-0.9 -2.6,-1.9 -3.9,-2.9 -1.4,-1.1 -2.9,-2.3 -4.3,-3.5 -1.3,-3.2 -2.3,-6.7 -2.7,-10.3 4.2,2.5 8.5,4.6 13,6.4 0,0 0,0 0,0 0.1,4.7 0.9,9.2 2.4,13.3 z"
     id="path4235"
     style="fill:#ffffff;fill-opacity:1;stroke:#2196f3;stroke-width:3.89763779;stroke-linecap:butt;stroke-linejoin:bevel;stroke-miterlimit:10;stroke-opacity:1;stroke-dasharray:none;paint-order:fill markers stroke"
     inkscape:connector-curvature="0" /><path
     class="st3"
     d="m 55.6433,167.24329 c -4.8,-2 -9.5,-4.4 -13.9,-7.1 -1.5,-4.1 -2.4,-8.6 -2.4,-13.3 0,0 0,0 0,0 1.9,0.7 3.7,1.4 5.6,2 v 0 c 1.7,0.6 3.4,1.1 5.1,1.5 v 0 l 1.5,0.4 c 0.2,6 1.7,11.6 4.1,16.5 z"
     id="path4237"
     style="fill:#ffffff;fill-opacity:1;stroke:#2196f3;stroke-width:3.89763779;stroke-linecap:butt;stroke-linejoin:bevel;stroke-miterlimit:10;stroke-opacity:1;stroke-dasharray:none;paint-order:fill markers stroke"
     inkscape:connector-curvature="0" /><path
     class="st3"
     d="m 70.8433,172.04329 c -2.3,-0.5 -4.7,-1.2 -6.9,-1.9 -2.8,-0.9 -5.6,-1.8 -8.2,-3 -2.5,-5 -3.9,-10.5 -3.9,-16.4 0.8,0.2 1.7,0.4 2.5,0.6 1.3,0.3 2.7,0.6 4,0.8 2.7,7.6 7,14.3 12.5,19.9 z"
     id="path4239"
     style="fill:#ffffff;fill-opacity:1;stroke:#2196f3;stroke-width:3.89763779;stroke-linecap:butt;stroke-linejoin:bevel;stroke-miterlimit:10;stroke-opacity:1;stroke-dasharray:none;paint-order:fill markers stroke"
     inkscape:connector-curvature="0" /><path
     class="st4"
     d="M 68.4433,3.543292"
     id="path4256"
     style="fill:#2196f3;fill-opacity:0;stroke:#2196f3;stroke-miterlimit:10;stroke-opacity:1;stroke-linejoin:bevel;stroke-linecap:butt;paint-order:fill markers stroke;stroke-width:2.83464567;stroke-dasharray:none"
     inkscape:connector-curvature="0" /><path
     class="st2"
     d="m 152.7433,94.343292 c -2.9,0.2 -5.8,0.5 -8.7,0.9 -1.3,0.3 -2.6,0.5 -3.9,0.7 -1.5,0.2 -3,0.3 -4.6,0.3 h -110.8 c -10,0 -18.3,7.699998 -19.1,17.499998 0,0.5 -0.1,1.1 -0.1,1.7 0,2.6 0.5,5.2 1.5,7.4 0,0 0,0 0,0 0.5,1.2 1.1,2.3 1.9,3.4 0,0 0,0 0,0 0.4,0.8 0.9,1.5 1.3,2.2 v 0 c 4.9,4.5 10.4,8.5 16.2,11.9 4.1,2.5 8.5,4.6 13,6.4 1.8,0.7 3.7,1.4 5.6,2 v 0 c 1.7,0.6 3.4,1.1 5.1,1.5 v 0 l 1.5,0.4 c 0.8,0.2 1.7,0.4 2.5,0.6 1.3,0.3 2.7,0.6 4,0.8 2.8,7.5 7.1,14.2 12.6,19.9 0.5,0.5 1.1,1.1 1.6,1.6 4.4,4.2 9.5,7.7 15.1,10.3 3.4,1.6 7,2.9 10.7,3.8 v 0 c 4.5,1.1 9.1,1.7 13.9,1.7 2.3,0 4.6,-0.1 6.8,-0.4 -0.9,-3.4 -2.1,-6.8 -3.6,-9.9 -1.1,-2.3 -2.3,-4.6 -3.7,-6.7 -0.8,-1.2 -1.6,-2.4 -2.5,-3.5 -3.5,-4.6 -7.6,-8.7 -12.3,-12.1 -2.2,-1.6 -4.5,-3 -7,-4.3 v 0 c -5,-2.6 -10.4,-4.5 -16,-5.6 7,0.4 13.8,2.1 19.9,4.9 v 0 c 1.6,0.7 3.2,1.5 4.7,2.4 5,2.8 9.5,6.3 13.4,10.5 1.9,2 3.7,4.2 5.4,6.5 2.1,-0.6 4.2,-1.2 6.3,-1.9 13.3,-4.6 25.3,-12 35.3,-21.6 v 0 c 3.9,-3.8 7.5,-7.8 10.7,-12.2 0.1,-0.1 0.1,-0.2 0.2,-0.2 1.8,-2.5 3.5,-5 5.1,-7.7 0.6,-1 1.2,-2 1.8,-3.1 4.4,-8.1 7.7,-16.9 9.6,-26.199998 -11,-3.3 -22.4,-4.6 -33.4,-3.9 z m -113.3,21.499998 c -1.2,0 -2.2,-1 -2.2,-2.2 0,-1.2 1,-2.2 2.2,-2.2 1.2,0 2.2,1 2.2,2.2 -0.1,1.2 -1,2.2 -2.2,2.2 z"
     id="path4258"
     style="fill:#ffffff;fill-opacity:1;stroke:#2196f3;stroke-width:3.89763779;stroke-linejoin:bevel;stroke-miterlimit:10;stroke-opacity:1;stroke-dasharray:none;stroke-linecap:butt;paint-order:fill markers stroke"
     inkscape:connector-curvature="0" /><path
     class="st2"
     d="m 186.1433,98.243292 c 1.3,0.4 2.5,0.8 3.8,1.2 3.1,1.099998 6.3,2.399998 9.4,3.799998 2.7,1.3 5.4,2.7 7.9,4.2 l 0.2,-0.4 c 4.4,-9.299998 12,-15.999998 20.9,-19.499998 9.4,-3.7 20.3,-3.6 30.2,1 1.1,0.5 2.2,1.1 3.3,1.8 -8.5,1.6 -16.6,5.1 -23.7,10.199998 -1.5,1.1 -2.9,2.2 -4.2,3.4 -4.5,4 -8.5,8.8 -11.6,14.4 -0.2,0.3 -0.3,0.6 -0.5,0.8 0,0 0,0 0,0 -1.9,0.7 -3.9,1.2 -5.9,1.3 1.2,1.6 2.1,3.5 2.8,5.4 -0.3,0.8 -0.6,1.7 -0.9,2.5 -0.3,0.8 -0.5,1.6 -0.8,2.4 -1.4,4.7 -2.1,9.4 -2.3,14.1 -0.1,1.8 -0.1,3.6 0,5.4 0.5,8.7 3,17.2 7.2,24.8 -1.2,-0.4 -2.3,-0.9 -3.5,-1.4 -9.9,-4.6 -16.9,-13 -20.1,-22.6 -3,-8.8 -2.7,-18.7 1.4,-27.8 -2.1,-0.7 -4.1,-1.3 -6.2,-1.8 v 0 c -5,0.3 -9.8,1.5 -14.3,3.6 -1.5,0.7 -3,1.5 -4.5,2.5"
     id="path4260"
     style="fill:#ffffff;fill-opacity:1;stroke:#2196f3;stroke-width:3.89763779;stroke-linejoin:bevel;stroke-miterlimit:10;stroke-opacity:1;stroke-dasharray:none;stroke-linecap:butt;paint-order:fill markers stroke"
     inkscape:connector-curvature="0" /></svg>